<?xml version="1.0" standalone="no"?>
<!DOCTYPE svg PUBLIC "-//W3C//DTD SVG 20010904//EN"
 "http://www.w3.org/TR/2001/REC-SVG-20010904/DTD/svg10.dtd">
<svg version="1.0" xmlns="http://www.w3.org/2000/svg"
 width="1024.000000pt" height="1024.000000pt" viewBox="0 0 1024.000000 1024.000000"
 preserveAspectRatio="xMidYMid meet">
<metadata>
Created by potrace 1.11, written by Peter Selinger 2001-2013
</metadata>
<g transform="translate(0.000000,1024.000000) scale(0.100000,-0.100000)"
fill="#000000" stroke="none">
<path d="M0 5120 l0 -5120 5120 0 5120 0 0 5120 0 5120 -5120 0 -5120 0 0
-5120z m7690 2830 c487 -43 868 -198 1135 -465 108 -107 207 -252 235 -343 20
-63 28 -201 14 -236 -7 -19 -44 -21 -65 -3 -8 6 -28 32 -44 57 -151 238 -499
443 -907 534 -214 48 -341 60 -633 60 -406 1 -725 -42 -1195 -159 -735 -183
-1685 -572 -2536 -1036 -223 -122 -274 -129 -274 -40 0 43 31 73 213 210 547
409 1244 772 2027 1059 771 282 1486 409 2030 362z m-2530 -463 c0 -2 -32 -17
-70 -32 -41 -17 -66 -31 -59 -36 8 -4 4 -9 -10 -14 -11 -3 -27 -12 -33 -19 -7
-7 -96 -54 -198 -105 -102 -52 -187 -97 -190 -101 -3 -4 -51 -31 -108 -59
-101 -50 -432 -238 -442 -250 -3 -3 -21 -15 -40 -25 -55 -31 -296 -193 -398
-268 -50 -37 -94 -68 -97 -68 -14 0 -114 -81 -152 -123 -68 -73 -77 -148 -31
-245 16 -34 18 -46 8 -57 -11 -14 -78 -53 -194 -115 -81 -43 -130 -71 -140
-80 -5 -5 -14 -6 -21 -4 -7 3 -16 1 -20 -5 -3 -6 -11 -11 -16 -11 -6 0 -7 5
-4 10 10 16 -5 12 -37 -11 -16 -12 -31 -19 -34 -16 -8 8 55 167 115 292 388
804 1203 1328 2094 1344 42 0 77 -1 77 -2z m2650 -101 c322 -51 608 -154 822
-295 100 -67 229 -189 288 -274 59 -83 74 -141 67 -256 -10 -169 -76 -303
-226 -451 -389 -387 -1192 -639 -2606 -819 -261 -33 -463 -55 -944 -101 -173
-17 -344 -37 -380 -45 -182 -42 -393 -132 -433 -186 -48 -64 10 -84 310 -109
405 -34 654 -74 919 -150 372 -105 716 -277 980 -491 182 -147 388 -384 513
-589 63 -104 155 -293 205 -420 38 -97 119 -369 113 -376 -2 -2 -47 15 -99 37
-306 133 -806 264 -1194 313 -310 40 -697 48 -977 21 -405 -39 -655 -102
-1201 -304 -709 -263 -1484 -345 -2025 -216 -404 97 -670 285 -764 541 -33 90
-37 293 -8 434 141 695 789 1463 1811 2148 625 418 1552 881 2384 1192 574
214 1140 355 1620 405 191 19 678 14 825 -9z m-314 -2155 c10 -63 -3 -321 -21
-450 -34 -228 -106 -470 -201 -671 -59 -123 -142 -270 -153 -270 -3 0 -12 9
-19 20 -6 11 -18 17 -26 14 -7 -3 -16 2 -20 11 -3 9 -10 14 -15 10 -5 -3 -16
3 -23 12 -14 20 -198 181 -292 257 -76 61 -314 217 -432 284 -365 205 -862
347 -1389 397 -228 21 -260 27 -260 45 0 21 91 55 210 79 55 11 249 34 430 51
535 50 957 100 1320 155 88 14 248 36 355 50 107 14 206 27 220 30 14 2 49 7
79 9 30 3 56 8 59 11 3 3 43 4 88 4 l83 -2 7 -46z m-1779 -2232 c98 -5 194
-15 213 -21 19 -7 64 -16 98 -22 l64 -11 -99 -38 c-448 -175 -958 -212 -1408
-102 l-90 22 45 13 c25 7 50 18 55 24 29 32 177 69 425 108 258 40 397 45 697
27z"/>
<path d="M2435 4389 c-81 -23 -146 -118 -146 -212 0 -105 59 -184 158 -213
148 -43 287 62 286 216 -2 153 -146 254 -298 209z"/>
</g>
</svg>
